<?xml version="1.0" encoding="utf-8"?>
<!-- Generator: Adobe Illustrator 28.3.0, SVG Export Plug-In . SVG Version: 6.00 Build 0)  -->
<svg version="1.1" id="Layer_1" xmlns="http://www.w3.org/2000/svg" xmlns:xlink="http://www.w3.org/1999/xlink" x="0px" y="0px"
	 viewBox="0 0 22.5 24" style="enable-background:new 0 0 22.5 24;" xml:space="preserve">
<style type="text/css">
	.st0{fill:#2B2B2B;}
</style>
<g>
	<path class="st0" d="M1.1,6.7H11c2.8,0,5,2.3,5,5.1v0.3c0,2.8-2.2,5-5,5.1H6.4V8.9H5.2v9.6h5.6c3.5,0,6.3-2.8,6.3-6.3v-0.5
		c0-1.7-0.6-3.2-1.8-4.4c-1.2-1.2-2.7-1.8-4.4-1.8H1.3V0H0v24h6.4v-1.3H1.1V6.7z"/>
	<path class="st0" d="M10.6,0H3.4v1.3h7.2c5.9,0,10.6,4.8,10.6,10.6v0.2c0,5.9-4.8,10.6-10.6,10.6H8.6V24h2.1
		c6.6,0,11.9-5.3,11.9-11.9v-0.2C22.5,5.3,17.2,0,10.6,0z"/>
</g>
</svg>
