<?xml version="1.0" encoding="UTF-8"?>
<svg id="Layer_1" data-name="Layer 1" xmlns="http://www.w3.org/2000/svg" version="1.1" viewBox="0 0 22.5 24">
  <defs>
    <style>
      .cls-1 {
        fill: #313131;
        stroke-width: 0px;
      }
    </style>
  </defs>
  <path class="cls-1" d="M1.1,6.7h9.9c2.8,0,5,2.3,5,5.1v.3c0,2.8-2.2,5-5,5.1h-4.6v-8.3h-1.2v9.6h5.6c3.5,0,6.3-2.8,6.3-6.3v-.5c0-1.7-.6-3.2-1.8-4.4s-2.7-1.8-4.4-1.8H1.3V0H0v24h6.4v-1.3H1.1V6.7Z"/>
  <path class="cls-1" d="M10.6,0H3.4v1.3h7.2c5.9,0,10.6,4.8,10.6,10.6v.2c0,5.9-4.8,10.6-10.6,10.6h-2v1.3h2.1c6.6,0,11.9-5.3,11.9-11.9v-.2c-.1-6.6-5.4-11.9-12-11.9Z"/>
</svg>