<?xml version="1.0" encoding="UTF-8"?>
<svg id="Layer_1" data-name="Layer 1" xmlns="http://www.w3.org/2000/svg" viewBox="0 0 24 24.08">
  <defs>
    <style>
      .cls-1 {
        fill: #2b2b2b;
        stroke-width: 0px;
      }
    </style>
  </defs>
  <path class="cls-1" d="M21.33,18.91c0-1.41,0-2.82,0-4.23,0-.66-.48-1.22-1.11-1.31-.85-.13-1.55.49-1.55,1.37,0,1.72,0,3.43,0,5.14,0,.94-.53,1.48-1.46,1.48H4.13c-.91,0-1.45-.54-1.45-1.46V6.81c0-.92.53-1.46,1.45-1.46,1.73,0,3.45,0,5.18,0,.78,0,1.37-.59,1.36-1.34,0-.75-.59-1.33-1.38-1.33-1.79,0-3.58-.01-5.37,0C1.79,2.7.01,4.46,0,6.61c-.01,4.5,0,9,0,13.5,0,1.22.61,2.39,1.59,3.13,1.24.94,2.69.76,4.14.79,1.04.02,8.65.09,11.41.04,1.95-.04,3.68-1.21,4.11-3.18.13-.65.08-1.31.08-1.97Z"/>
  <path class="cls-1" d="M22.62,0h-7.91c-.73,0-1.35.58-1.36,1.31,0,.38.14.72.39.97.24.24.58.39.95.39h4.83l-11.06,11.05c-.52.52-.52,1.37,0,1.89.26.26.6.39.95.39s.68-.13.95-.39l10.98-10.98v4.69c0,.73.58,1.35,1.31,1.36.38,0,.72-.14.97-.39.24-.24.39-.58.39-.95V1.38c0-.76-.61-1.38-1.38-1.38Z"/>
</svg>