<?xml version="1.0" encoding="UTF-8"?>
<svg xmlns="http://www.w3.org/2000/svg" version="1.1" viewBox="0 0 166.7 166.7">
  <!-- Generator: Adobe Illustrator 28.7.1, SVG Export Plug-In . SVG Version: 1.2.0 Build 142)  -->
  <g>
    <g id="Layer_1">
      <g>
        <path d="M108.3,6.2c0-3.5,2.8-6.2,6.2-6.2h45.8c3.5,0,6.2,2.8,6.2,6.2v45.8c0,3.5-2.8,6.2-6.2,6.2s-6.2-2.8-6.2-6.2v-30.7l-51.8,51.8c-2.4,2.5-6.3,2.7-8.8.3-2.5-2.4-2.7-6.3-.3-8.8.1-.1.2-.2.3-.3l51.8-51.8h-30.8c-3.5,0-6.2-2.8-6.2-6.2Z"/>
        <path d="M0,22.9c0-8.1,6.5-14.6,14.6-14.6h70.8c3.5,0,6.2,2.8,6.2,6.2s-2.8,6.2-6.2,6.2H14.6c-1.2,0-2.1.9-2.1,2.1v129.2c0,1.2.9,2.1,2.1,2.1h129.2c1.2,0,2.1-.9,2.1-2.1v-70.8c0-3.5,2.8-6.2,6.2-6.2s6.2,2.8,6.2,6.2v70.8c0,8.1-6.5,14.6-14.6,14.6H14.6c-8.1,0-14.6-6.5-14.6-14.6V22.9Z"/>
      </g>
    </g>
  </g>
</svg>