<?xml version="1.0" encoding="UTF-8"?>
<svg id="Layer_1" xmlns="http://www.w3.org/2000/svg" viewBox="0 0 12 12">
  <path d="M4.56.32c.27-.16.6-.16.88,0l4.12,2.38c.05.03.1.06.14.1.2.04.33.24.29.45,0,.01,0,.02,0,.03.01.06.02.12.02.17v1.67c0,.21-.17.38-.38.38s-.38-.17-.38-.38v-1.31l-3.88,2.24v5.12c0,.21-.17.38-.37.38-.07,0-.13-.02-.19-.05L.44,8.98C.17,8.82,0,8.53,0,8.22V3.46c0-.06,0-.12.02-.17-.06-.2.05-.41.24-.47.01,0,.02,0,.03,0,.04-.04.09-.07.14-.1L4.56.32h0ZM5,5.41h0s3.87-2.24,3.87-2.24L5.06.97s-.09-.02-.12,0L1.13,3.17l3.88,2.24ZM.75,3.82v4.4s.02.09.06.11l3.81,2.2v-4.47L.75,3.82Z"/>
  <path d="M10.67,8.75l-1.45-1.35c-.16-.14-.17-.37-.04-.53.14-.16.37-.17.53-.04,0,0,.01.01.02.02l2.14,2c.15.14.16.38.02.53,0,0-.01.01-.02.02l-2.14,2c-.15.15-.38.15-.53,0s-.15-.38,0-.53c0,0,.01-.01.02-.02l1.45-1.35h-3.32c-.21,0-.38-.17-.38-.38s.17-.38.38-.38h3.32Z"/>
</svg>