<?xml version="1.0" encoding="utf-8"?>
<!-- Generator: Adobe Illustrator 28.3.0, SVG Export Plug-In . SVG Version: 6.00 Build 0)  -->
<svg version="1.1" id="Layer_1" xmlns="http://www.w3.org/2000/svg" xmlns:xlink="http://www.w3.org/1999/xlink" x="0px" y="0px"
	 viewBox="0 0 24 24" style="enable-background:new 0 0 24 24;" xml:space="preserve">
<style type="text/css">
	.st0{fill:#2B2B2B;}
</style>
<g>
	<path class="st0" d="M23.1,3.4H0.9C0.4,3.4,0,3.8,0,4.3s0.4,0.9,0.9,0.9h22.3c0.5,0,0.9-0.4,0.9-0.9C24,3.8,23.6,3.4,23.1,3.4z"/>
	<path class="st0" d="M19.7,11.1H0.9C0.4,11.1,0,11.5,0,12s0.4,0.9,0.9,0.9h18.9c0.5,0,0.9-0.4,0.9-0.9S20.2,11.1,19.7,11.1z"/>
	<path class="st0" d="M12.1,18.9H0.9c-0.5,0-0.9,0.4-0.9,0.9l0,0c0,0.5,0.4,0.9,0.9,0.9h11.2c0.5,0,0.9-0.4,0.9-0.9l0,0
		C12.9,19.2,12.5,18.9,12.1,18.9z"/>
</g>
</svg>
