<?xml version="1.0" encoding="UTF-8"?>
<svg xmlns="http://www.w3.org/2000/svg" version="1.1" viewBox="0 0 24 24">
  <defs>
    <style>
      .cls-1 {
        fill: #010101;
      }
    </style>
  </defs>
  <!-- Generator: Adobe Illustrator 28.7.1, SVG Export Plug-In . SVG Version: 1.2.0 Build 142)  -->
  <g>
    <g id="Layer_1">
      <g id="Layer_1-2" data-name="Layer_1">
        <g>
          <path class="cls-1" d="M23.1,3.4H.9c-.5,0-.9.4-.9.9s.4.9.9.9h22.3c.5,0,.9-.4.9-.9s-.5-.9-1-.9Z"/>
          <path class="cls-1" d="M19.7,11.1H.9c-.5,0-.9.4-.9.9s.4.9.9.9h18.9c.5,0,.9-.4.9-.9s-.5-.9-1-.9Z"/>
          <path class="cls-1" d="M12.1,18.9H.9c-.5,0-.9.4-.9.9h0c0,.5.4.9.9.9h11.2c.5,0,.9-.4.9-.9h0c0-.6-.5-.9-.9-.9Z"/>
        </g>
      </g>
      <rect class="cls-1" y="3.4" width="24.1" height="1.8"/>
      <rect class="cls-1" y="11.1" width="20.7" height="1.8"/>
      <rect class="cls-1" y="18.9" width="13" height="1.8"/>
    </g>
  </g>
</svg>