<?xml version="1.0" encoding="UTF-8"?>
<svg id="Layer_1" data-name="Layer 1" xmlns="http://www.w3.org/2000/svg" version="1.1" viewBox="0 0 24 24">
  <defs>
    <style>
      .cls-1 {
        fill: #313131;
        stroke-width: 0px;
      }
    </style>
  </defs>
  <path class="cls-1" d="M2.9,7.4h8.8c2.4,0,4.3,2,4.3,4.4v.3c0,2.4-1.9,4.3-4.3,4.4h-3.9v-6.9h-2.1v9.1h5.9c3.6,0,6.5-2.9,6.5-6.5v-.5h0c0-1.8-.7-3.4-1.9-4.6-1.2-1.2-2.8-1.9-4.6-1.9H2.9V0H.7v24h7.1v-2.2H2.8V7.4h.1Z"/>
  <path class="cls-1" d="M11.4,0h-6.3v2.2h6.3c5.4,0,9.7,4.4,9.7,9.7v.2c0,5.4-4.4,9.7-9.7,9.7h-1.4v2.2h1.4c6.6,0,11.9-5.3,11.9-11.9v-.2C23.3,5.3,18,0,11.4,0Z"/>
</svg>