<?xml version="1.0" encoding="UTF-8"?>
<svg xmlns="http://www.w3.org/2000/svg" version="1.1" viewBox="0 0 24 24.1">
  <defs>
    <style>
      .cls-1 {
        fill: #010101;
      }
    </style>
  </defs>
  <!-- Generator: Adobe Illustrator 28.7.1, SVG Export Plug-In . SVG Version: 1.2.0 Build 142)  -->
  <g>
    <g id="Layer_1">
      <path class="cls-1" d="M21.3,18.9v-4.2c0-.7-.5-1.2-1.1-1.3-.9-.1-1.5.5-1.5,1.4v5.1c0,.9-.5,1.5-1.5,1.5H4.1c-.9,0-1.5-.5-1.5-1.5V6.8c0-.9.5-1.5,1.5-1.5h5.2c.8,0,1.4-.6,1.4-1.3,0-.8-.6-1.3-1.4-1.3-1.8,0-3.6,0-5.4,0C1.8,2.7,0,4.5,0,6.6c0,4.5,0,9,0,13.5s.6,2.4,1.6,3.1c1.2.9,2.7.8,4.1.8,1,0,8.6,0,11.4,0,2,0,3.7-1.2,4.1-3.2.1-.6,0-1.3,0-2h0Z"/>
      <path class="cls-1" d="M22.6,0h-7.9c-.7,0-1.4.6-1.4,1.3,0,.4.1.7.4,1,.2.2.6.4.9.4h4.8l-11.1,11.1c-.5.5-.5,1.4,0,1.9.3.3.6.4.9.4s.7-.1.9-.4l11-11v4.7c0,.7.6,1.4,1.3,1.4.4,0,.7-.1,1-.4s.4-.6.4-.9V1.4c0-.8-.6-1.4-1.4-1.4h0Z"/>
    </g>
  </g>
</svg>